<svg width="200" height="200"> <rect x="50" y="50" width="100" height="100" fill="white" stroke="purple" stroke-width="10"/> </svg>
<svg width="200" height="200"> <rect x="50" y="50" width="100" height="100" fill="yellow" stroke="green" stroke-width="10"/> </svg>
<svg width="200" height="200"> <rect x="50" y="50" width="100" height="100" fill="yellow" stroke="green" stroke-width="10"/> </svg>
<svg width="200" height="200"> <rect x="50" y="50" width="100" height="100" fill="red" stroke="blue" stroke-width="10"/> </svg>
<svg width="200" height="200"> <rect x="50" y="50" width="100" height="100" fill="red" stroke="blue" stroke-width="10"/> </svg>
<svg width="200" height="200"> <rect x="50" y="50" width="100" height="100" fill="yellow" stroke="green" stroke-width="10"/> </svg>
<svg width="200" height="200"> <rect x="50" y="50" width="100" height="100" fill="red" stroke="green" stroke-width="10"/> </svg>
<svg width="200" height="200"> <rect x="50" y="50" width="100" height="100" fill="yellow" stroke="green" stroke-width="10"/> </svg>
<svg width="200" height="200"> <rect x="50" y="50" width="100" height="100" fill="red" stroke="blue" stroke-width="10"/> </svg>
<svg width="200" height="200"> <rect x="50" y="50" width="100" height="100" fill="yellow" stroke="green" stroke-width="10"/> </svg>
<svg width="200" height="200"> <rect x="50" y="50" width="100" height="100" fill="red" stroke="blue" stroke-width="10"/> </svg>
<svg width="200" height="200"> <rect x="50" y="50" width="100" height="100" fill="red" stroke="green" stroke-width="10"/> </svg>
<svg width="200" height="200"> <rect x="50" y="50" width="100" height="100" fill="white" stroke="blue" stroke-width="10"/> </svg>
<svg width="200" height="200"> <rect x="50" y="50" width="100" height="100" fill="red" stroke="green" stroke-width="10"/> </svg>
<svg width="200" height="200"> <rect x="50" y="50" width="100" height="100" fill="yellow" stroke="green" stroke-width="10"/> </svg>
<svg width="200" height="200"> <rect x="50" y="50" width="100" height="100" fill="yellow" stroke="green" stroke-width="10"/> </svg>
<svg width="200" height="200"> <rect x="50" y="50" width="100" height="100" fill="yellow" stroke="green" stroke-width="10"/> </svg>
<svg width="200" height="200"> <rect x="50" y="50" width="100" height="100" fill="yellow" stroke="green" stroke-width="10"/> </svg>
<svg width="200" height="200"> <rect x="50" y="50" width="100" height="100" fill="yellow" stroke="purple" stroke-width="10"/> </svg>
<svg width="200" height="200"> <rect x="50" y="50" width="100" height="100" fill="yellow" stroke="green" stroke-width="10"/> </svg>
<svg width="200" height="200"> <rect x="50" y="50" width="100" height="100" fill="yellow" stroke="purple" stroke-width="10"/> </svg>
<svg width="200" height="200"> <rect x="50" y="50" width="100" height="100" fill="white" stroke="green" stroke-width="10"/> </svg>
<svg width="200" height="200"> <rect x="50" y="50" width="100" height="100" fill="red" stroke="blue" stroke-width="10"/> </svg>
<svg width="200" height="200"> <rect x="50" y="50" width="100" height="100" fill="yellow" stroke="green" stroke-width="10"/> </svg>
<svg width="200" height="200"> <rect x="50" y="50" width="100" height="100" fill="white" stroke="blue" stroke-width="10"/> </svg>
<svg width="200" height="200"> <rect x="50" y="50" width="100" height="100" fill="white" stroke="purple" stroke-width="10"/> </svg>
<svg width="200" height="200"> <rect x="50" y="50" width="100" height="100" fill="white" stroke="blue" stroke-width="10"/> </svg>
<svg width="200" height="200"> <rect x="50" y="50" width="100" height="100" fill="red" stroke="blue" stroke-width="10"/> </svg>
<svg width="200" height="200"> <rect x="50" y="50" width="100" height="100" fill="yellow" stroke="green" stroke-width="10"/> </svg>
<svg width="200" height="200"> <rect x="50" y="50" width="100" height="100" fill="yellow" stroke="purple" stroke-width="10"/> </svg>
<svg width="200" height="200"> <rect x="50" y="50" width="100" height="100" fill="yellow" stroke="green" stroke-width="10"/> </svg>
<svg width="200" height="200"> <rect x="50" y="50" width="100" height="100" fill="yellow" stroke="green" stroke-width="10"/> </svg>
<svg width="200" height="200"> <rect x="50" y="50" width="100" height="100" fill="red" stroke="green" stroke-width="10"/> </svg>
<svg width="200" height="200"> <rect x="50" y="50" width="100" height="100" fill="yellow" stroke="green" stroke-width="10"/> </svg>
<svg width="200" height="200"> <rect x="50" y="50" width="100" height="100" fill="white" stroke="blue" stroke-width="10"/> </svg>
<svg width="200" height="200"> <rect x="50" y="50" width="100" height="100" fill="red" stroke="green" stroke-width="10"/> </svg>
<svg width="200" height="200"> <rect x="50" y="50" width="100" height="100" fill="yellow" stroke="green" stroke-width="10"/> </svg>
<svg width="200" height="200"> <rect x="50" y="50" width="100" height="100" fill="red" stroke="blue" stroke-width="10"/> </svg>
<svg width="200" height="200"> <rect x="50" y="50" width="100" height="100" fill="yellow" stroke="green" stroke-width="10"/> </svg>
<svg width="200" height="200"> <rect x="50" y="50" width="100" height="100" fill="yellow" stroke="green" stroke-width="10"/> </svg>
<svg width="200" height="200"> <rect x="50" y="50" width="100" height="100" fill="white" stroke="blue" stroke-width="10"/> </svg>
<svg width="200" height="200"> <rect x="50" y="50" width="100" height="100" fill="red" stroke="blue" stroke-width="10"/> </svg>
<svg width="200" height="200"> <rect x="50" y="50" width="100" height="100" fill="red" stroke="blue" stroke-width="10"/> </svg>
<svg width="200" height="200"> <rect x="50" y="50" width="100" height="100" fill="yellow" stroke="green" stroke-width="10"/> </svg>
<svg width="200" height="200"> <rect x="50" y="50" width="100" height="100" fill="yellow" stroke="green" stroke-width="10"/> </svg>
<svg width="200" height="200"> <rect x="50" y="50" width="100" height="100" fill="yellow" stroke="green" stroke-width="10"/> </svg>
<svg width="200" height="200"> <rect x="50" y="50" width="100" height="100" fill="white" stroke="green" stroke-width="10"/> </svg>
<svg width="200" height="200"> <rect x="50" y="50" width="100" height="100" fill="yellow" stroke="green" stroke-width="10"/> </svg>
<svg width="200" height="200"> <rect x="50" y="50" width="100" height="100" fill="white" stroke="green" stroke-width="10"/> </svg>
<svg width="200" height="200"> <rect x="50" y="50" width="100" height="100" fill="yellow" stroke="green" stroke-width="10"/> </svg>
<svg width="200" height="200"> <rect x="50" y="50" width="100" height="100" fill="yellow" stroke="green" stroke-width="10"/> </svg>
<svg width="200" height="200"> <rect x="50" y="50" width="100" height="100" fill="yellow" stroke="green" stroke-width="10"/> </svg>
<svg width="200" height="200"> <rect x="50" y="50" width="100" height="100" fill="yellow" stroke="green" stroke-width="10"/> </svg>
<svg width="200" height="200"> <rect x="50" y="50" width="100" height="100" fill="yellow" stroke="green" stroke-width="10"/> </svg>
<svg width="200" height="200"> <rect x="50" y="50" width="100" height="100" fill="yellow" stroke="green" stroke-width="10"/> </svg>
<svg width="200" height="200"> <rect x="50" y="50" width="100" height="100" fill="white" stroke="blue" stroke-width="10"/> </svg>
<svg width="200" height="200"> <rect x="50" y="50" width="100" height="100" fill="red" stroke="blue" stroke-width="10"/> </svg>
<svg width="200" height="200"> <rect x="50" y="50" width="100" height="100" fill="white" stroke="blue" stroke-width="10"/> </svg>
<svg width="200" height="200"> <rect x="50" y="50" width="100" height="100" fill="red" stroke="blue" stroke-width="10"/> </svg>
<svg width="200" height="200"> <rect x="50" y="50" width="100" height="100" fill="red" stroke="blue" stroke-width="10"/> </svg>
<svg width="200" height="200"> <rect x="50" y="50" width="100" height="100" fill="yellow" stroke="green" stroke-width="10"/> </svg>
<svg width="200" height="200"> <rect x="50" y="50" width="100" height="100" fill="white" stroke="blue" stroke-width="10"/> </svg>
<svg width="200" height="200"> <rect x="50" y="50" width="100" height="100" fill="yellow" stroke="green" stroke-width="10"/> </svg>
<svg width="200" height="200"> <rect x="50" y="50" width="100" height="100" fill="yellow" stroke="green" stroke-width="10"/> </svg>
<svg width="200" height="200"> <rect x="50" y="50" width="100" height="100" fill="yellow" stroke="green" stroke-width="10"/> </svg>
<svg width="200" height="200"> <rect x="50" y="50" width="100" height="100" fill="yellow" stroke="green" stroke-width="10"/> </svg>
<svg width="200" height="200"> <rect x="50" y="50" width="100" height="100" fill="red" stroke="blue" stroke-width="10"/> </svg>
<svg width="200" height="200"> <rect x="50" y="50" width="100" height="100" fill="red" stroke="green" stroke-width="10"/> </svg>
<svg width="200" height="200"> <rect x="50" y="50" width="100" height="100" fill="red" stroke="blue" stroke-width="10"/> </svg>
<svg width="200" height="200"> <rect x="50" y="50" width="100" height="100" fill="red" stroke="green" stroke-width="10"/> </svg>
<svg width="200" height="200"> <rect x="50" y="50" width="100" height="100" fill="yellow" stroke="green" stroke-width="10"/> </svg>
<svg width="200" height="200"> <rect x="50" y="50" width="100" height="100" fill="red" stroke="blue" stroke-width="10"/> </svg>
<svg width="200" height="200"> <rect x="50" y="50" width="100" height="100" fill="red" stroke="blue" stroke-width="10"/> </svg>
<svg width="200" height="200"> <rect x="50" y="50" width="100" height="100" fill="yellow" stroke="green" stroke-width="10"/> </svg>
<svg width="200" height="200"> <rect x="50" y="50" width="100" height="100" fill="red" stroke="blue" stroke-width="10"/> </svg>
<svg width="200" height="200"> <rect x="50" y="50" width="100" height="100" fill="yellow" stroke="green" stroke-width="10"/> </svg>
<svg width="200" height="200"> <rect x="50" y="50" width="100" height="100" fill="yellow" stroke="green" stroke-width="10"/> </svg>
<svg width="200" height="200"> <rect x="50" y="50" width="100" height="100" fill="white" stroke="blue" stroke-width="10"/> </svg>
<svg width="200" height="200"> <rect x="50" y="50" width="100" height="100" fill="white" stroke="green" stroke-width="10"/> </svg>
<svg width="200" height="200"> <rect x="50" y="50" width="100" height="100" fill="white" stroke="green" stroke-width="10"/> </svg>
<svg width="200" height="200"> <rect x="50" y="50" width="100" height="100" fill="white" stroke="green" stroke-width="10"/> </svg>
<svg width="200" height="200"> <rect x="50" y="50" width="100" height="100" fill="yellow" stroke="green" stroke-width="10"/> </svg>
<svg width="200" height="200"> <rect x="50" y="50" width="100" height="100" fill="red" stroke="blue" stroke-width="10"/> </svg>
<svg width="200" height="200"> <rect x="50" y="50" width="100" height="100" fill="white" stroke="green" stroke-width="10"/> </svg>
<svg width="200" height="200"> <rect x="50" y="50" width="100" height="100" fill="white" stroke="green" stroke-width="10"/> </svg>
<svg width="200" height="200"> <rect x="50" y="50" width="100" height="100" fill="yellow" stroke="green" stroke-width="10"/> </svg>
<svg width="200" height="200"> <rect x="50" y="50" width="100" height="100" fill="red" stroke="blue" stroke-width="10"/> </svg>
<svg width="200" height="200"> <rect x="50" y="50" width="100" height="100" fill="white" stroke="blue" stroke-width="10"/> </svg>
<svg width="200" height="200"> <rect x="50" y="50" width="100" height="100" fill="white" stroke="blue" stroke-width="10"/> </svg>
<svg width="200" height="200"> <rect x="50" y="50" width="100" height="100" fill="white" stroke="green" stroke-width="10"/> </svg>
<svg width="200" height="200"> <rect x="50" y="50" width="100" height="100" fill="yellow" stroke="green" stroke-width="10"/> </svg>
<svg width="200" height="200"> <rect x="50" y="50" width="100" height="100" fill="yellow" stroke="green" stroke-width="10"/> </svg>
<svg width="200" height="200"> <rect x="50" y="50" width="100" height="100" fill="yellow" stroke="green" stroke-width="10"/> </svg>
<svg width="200" height="200"> <rect x="50" y="50" width="100" height="100" fill="red" stroke="blue" stroke-width="10"/> </svg>
<svg width="200" height="200"> <rect x="50" y="50" width="100" height="100" fill="yellow" stroke="green" stroke-width="10"/> </svg>
<svg width="200" height="200"> <rect x="50" y="50" width="100" height="100" fill="yellow" stroke="green" stroke-width="10"/> </svg>
<svg width="200" height="200"> <rect x="50" y="50" width="100" height="100" fill="white" stroke="blue" stroke-width="10"/> </svg>
<svg width="200" height="200"> <rect x="50" y="50" width="100" height="100" fill="yellow" stroke="green" stroke-width="10"/> </svg>
<svg width="200" height="200"> <rect x="50" y="50" width="100" height="100" fill="yellow" stroke="green" stroke-width="10"/> </svg>
<svg width="200" height="200"> <rect x="50" y="50" width="100" height="100" fill="yellow" stroke="green" stroke-width="10"/> </svg>
