<svg width="200" height="200"> <circle cx="100" cy="100" r="60" stroke="purple" stroke-width="10" fill="white" /> </svg>
<svg width="200" height="200"> <rect x="50" y="50" width="100" height="100" fill="white" stroke="blue" stroke-width="10"/> </svg>
<svg width="200" height="200"> <circle cx="100" cy="100" r="60" stroke="purple" stroke-width="10" fill="white" /> </svg>
<svg width="200" height="200"> <circle cx="100" cy="100" r="60" stroke="purple" stroke-width="10" fill="white" /> </svg>
<svg width="200" height="200"> <rect x="50" y="50" width="100" height="100" fill="white" stroke="blue" stroke-width="10"/> </svg>
<svg width="200" height="200"> <rect x="50" y="50" width="100" height="100" fill="yellow" stroke="blue" stroke-width="10"/> </svg>
<svg width="200" height="200"> <rect x="50" y="50" width="100" height="100" fill="yellow" stroke="blue" stroke-width="10"/> </svg>
<svg width="200" height="200"> <circle cx="100" cy="100" r="60" stroke="purple" stroke-width="10" fill="red" /> </svg>
<svg width="200" height="200"> <circle cx="100" cy="100" r="60" stroke="purple" stroke-width="10" fill="white" /> </svg>
<svg width="200" height="200"> <rect x="50" y="50" width="100" height="100" fill="yellow" stroke="blue" stroke-width="10"/> </svg>
<svg width="200" height="200"> <rect x="50" y="50" width="100" height="100" fill="white" stroke="blue" stroke-width="10"/> </svg>
<svg width="200" height="200"> <circle cx="100" cy="100" r="60" stroke="purple" stroke-width="10" fill="white" /> </svg>
<svg width="200" height="200"> <rect x="50" y="50" width="100" height="100" fill="yellow" stroke="blue" stroke-width="10"/> </svg>
<svg width="200" height="200"> <circle cx="100" cy="100" r="60" stroke="purple" stroke-width="10" fill="white" /> </svg>
<svg width="200" height="200"> <rect x="50" y="50" width="100" height="100" fill="yellow" stroke="blue" stroke-width="10"/> </svg>
<svg width="200" height="200"> <rect x="50" y="50" width="100" height="100" fill="white" stroke="blue" stroke-width="10"/> </svg>
<svg width="200" height="200"> <circle cx="100" cy="100" r="60" stroke="purple" stroke-width="10" fill="white" /> </svg>
<svg width="200" height="200"> <rect x="50" y="50" width="100" height="100" fill="yellow" stroke="blue" stroke-width="10"/> </svg>
<svg width="200" height="200"> <circle cx="100" cy="100" r="60" stroke="purple" stroke-width="10" fill="white" /> </svg>
<svg width="200" height="200"> <rect x="50" y="50" width="100" height="100" fill="white" stroke="blue" stroke-width="10"/> </svg>
<svg width="200" height="200"> <rect x="50" y="50" width="100" height="100" fill="white" stroke="blue" stroke-width="10"/> </svg>
<svg width="200" height="200"> <rect x="50" y="50" width="100" height="100" fill="white" stroke="blue" stroke-width="10"/> </svg>
<svg width="200" height="200"> <circle cx="100" cy="100" r="60" stroke="purple" stroke-width="10" fill="white" /> </svg>
<svg width="200" height="200"> <rect x="50" y="50" width="100" height="100" fill="yellow" stroke="blue" stroke-width="10"/> </svg>
<svg width="200" height="200"> <circle cx="100" cy="100" r="60" stroke="purple" stroke-width="10" fill="white" /> </svg>
<svg width="200" height="200"> <rect x="50" y="50" width="100" height="100" fill="yellow" stroke="blue" stroke-width="10"/> </svg>
<svg width="200" height="200"> <circle cx="100" cy="100" r="60" stroke="purple" stroke-width="10" fill="white" /> </svg>
<svg width="200" height="200"> <circle cx="100" cy="100" r="60" stroke="purple" stroke-width="10" fill="white" /> </svg>
<svg width="200" height="200"> <circle cx="100" cy="100" r="60" stroke="purple" stroke-width="10" fill="white" /> </svg>
<svg width="200" height="200"> <rect x="50" y="50" width="100" height="100" fill="yellow" stroke="blue" stroke-width="10"/> </svg>
<svg width="200" height="200"> <circle cx="100" cy="100" r="60" stroke="purple" stroke-width="10" fill="white" /> </svg>
<svg width="200" height="200"> <circle cx="100" cy="100" r="60" stroke="purple" stroke-width="10" fill="white" /> </svg>
<svg width="200" height="200"> <rect x="50" y="50" width="100" height="100" fill="white" stroke="blue" stroke-width="10"/> </svg>
<svg width="200" height="200"> <rect x="50" y="50" width="100" height="100" fill="white" stroke="blue" stroke-width="10"/> </svg>
<svg width="200" height="200"> <circle cx="100" cy="100" r="60" stroke="purple" stroke-width="10" fill="white" /> </svg>
<svg width="200" height="200"> <rect x="50" y="50" width="100" height="100" fill="yellow" stroke="blue" stroke-width="10"/> </svg>
<svg width="200" height="200"> <circle cx="100" cy="100" r="60" stroke="purple" stroke-width="10" fill="white" /> </svg>
<svg width="200" height="200"> <rect x="50" y="50" width="100" height="100" fill="white" stroke="blue" stroke-width="10"/> </svg>
<svg width="200" height="200"> <circle cx="100" cy="100" r="60" stroke="purple" stroke-width="10" fill="white" /> </svg>
<svg width="200" height="200"> <circle cx="100" cy="100" r="60" stroke="purple" stroke-width="10" fill="white" /> </svg>
<svg width="200" height="200"> <rect x="50" y="50" width="100" height="100" fill="white" stroke="blue" stroke-width="10"/> </svg>
<svg width="200" height="200"> <circle cx="100" cy="100" r="60" stroke="purple" stroke-width="10" fill="white" /> </svg>
<svg width="200" height="200"> <circle cx="100" cy="100" r="60" stroke="purple" stroke-width="10" fill="white" /> </svg>
<svg width="200" height="200"> <rect x="50" y="50" width="100" height="100" fill="yellow" stroke="blue" stroke-width="10"/> </svg>
<svg width="200" height="200"> <rect x="50" y="50" width="100" height="100" fill="yellow" stroke="blue" stroke-width="10"/> </svg>
<svg width="200" height="200"> <rect x="50" y="50" width="100" height="100" fill="yellow" stroke="blue" stroke-width="10"/> </svg>
<svg width="200" height="200"> <circle cx="100" cy="100" r="60" stroke="purple" stroke-width="10" fill="white" /> </svg>
<svg width="200" height="200"> <rect x="50" y="50" width="100" height="100" fill="yellow" stroke="blue" stroke-width="10"/> </svg>
<svg width="200" height="200"> <circle cx="100" cy="100" r="60" stroke="purple" stroke-width="10" fill="white" /> </svg>
<svg width="200" height="200"> <rect x="50" y="50" width="100" height="100" fill="yellow" stroke="blue" stroke-width="10"/> </svg>
<svg width="200" height="200"> <circle cx="100" cy="100" r="60" stroke="purple" stroke-width="10" fill="white" /> </svg>
<svg width="200" height="200"> <rect x="50" y="50" width="100" height="100" fill="yellow" stroke="blue" stroke-width="10"/> </svg>
<svg width="200" height="200"> <circle cx="100" cy="100" r="60" stroke="purple" stroke-width="10" fill="white" /> </svg>
<svg width="200" height="200"> <circle cx="100" cy="100" r="60" stroke="purple" stroke-width="10" fill="white" /> </svg>
<svg width="200" height="200"> <rect x="50" y="50" width="100" height="100" fill="yellow" stroke="blue" stroke-width="10"/> </svg>
<svg width="200" height="200"> <rect x="50" y="50" width="100" height="100" fill="white" stroke="blue" stroke-width="10"/> </svg>
<svg width="200" height="200"> <rect x="50" y="50" width="100" height="100" fill="white" stroke="blue" stroke-width="10"/> </svg>
<svg width="200" height="200"> <circle cx="100" cy="100" r="60" stroke="purple" stroke-width="10" fill="white" /> </svg>
<svg width="200" height="200"> <circle cx="100" cy="100" r="60" stroke="purple" stroke-width="10" fill="white" /> </svg>
<svg width="200" height="200"> <rect x="50" y="50" width="100" height="100" fill="yellow" stroke="blue" stroke-width="10"/> </svg>
<svg width="200" height="200"> <rect x="50" y="50" width="100" height="100" fill="yellow" stroke="blue" stroke-width="10"/> </svg>
<svg width="200" height="200"> <circle cx="100" cy="100" r="60" stroke="purple" stroke-width="10" fill="white" /> </svg>
<svg width="200" height="200"> <rect x="50" y="50" width="100" height="100" fill="yellow" stroke="blue" stroke-width="10"/> </svg>
<svg width="200" height="200"> <circle cx="100" cy="100" r="60" stroke="purple" stroke-width="10" fill="white" /> </svg>
<svg width="200" height="200"> <rect x="50" y="50" width="100" height="100" fill="yellow" stroke="blue" stroke-width="10"/> </svg>
<svg width="200" height="200"> <rect x="50" y="50" width="100" height="100" fill="yellow" stroke="blue" stroke-width="10"/> </svg>
<svg width="200" height="200"> <rect x="50" y="50" width="100" height="100" fill="white" stroke="blue" stroke-width="10"/> </svg>
<svg width="200" height="200"> <rect x="50" y="50" width="100" height="100" fill="yellow" stroke="blue" stroke-width="10"/> </svg>
<svg width="200" height="200"> <circle cx="100" cy="100" r="60" stroke="purple" stroke-width="10" fill="white" /> </svg>
<svg width="200" height="200"> <circle cx="100" cy="100" r="60" stroke="purple" stroke-width="10" fill="white" /> </svg>
<svg width="200" height="200"> <circle cx="100" cy="100" r="60" stroke="purple" stroke-width="10" fill="white" /> </svg>
<svg width="200" height="200"> <rect x="50" y="50" width="100" height="100" fill="yellow" stroke="blue" stroke-width="10"/> </svg>
<svg width="200" height="200"> <circle cx="100" cy="100" r="60" stroke="purple" stroke-width="10" fill="white" /> </svg>
<svg width="200" height="200"> <rect x="50" y="50" width="100" height="100" fill="yellow" stroke="blue" stroke-width="10"/> </svg>
<svg width="200" height="200"> <circle cx="100" cy="100" r="60" stroke="purple" stroke-width="10" fill="white" /> </svg>
<svg width="200" height="200"> <rect x="50" y="50" width="100" height="100" fill="yellow" stroke="blue" stroke-width="10"/> </svg>
<svg width="200" height="200"> <rect x="50" y="50" width="100" height="100" fill="yellow" stroke="blue" stroke-width="10"/> </svg>
<svg width="200" height="200"> <circle cx="100" cy="100" r="60" stroke="purple" stroke-width="10" fill="white" /> </svg>
<svg width="200" height="200"> <rect x="50" y="50" width="100" height="100" fill="white" stroke="blue" stroke-width="10"/> </svg>
<svg width="200" height="200"> <circle cx="100" cy="100" r="60" stroke="purple" stroke-width="10" fill="white" /> </svg>
<svg width="200" height="200"> <rect x="50" y="50" width="100" height="100" fill="white" stroke="blue" stroke-width="10"/> </svg>
<svg width="200" height="200"> <circle cx="100" cy="100" r="60" stroke="green" stroke-width="10" fill="white" /> </svg>
<svg width="200" height="200"> <rect x="50" y="50" width="100" height="100" fill="white" stroke="blue" stroke-width="10"/> </svg>
<svg width="200" height="200"> <rect x="50" y="50" width="100" height="100" fill="white" stroke="blue" stroke-width="10"/> </svg>
<svg width="200" height="200"> <circle cx="100" cy="100" r="60" stroke="purple" stroke-width="10" fill="white" /> </svg>
<svg width="200" height="200"> <rect x="50" y="50" width="100" height="100" fill="white" stroke="blue" stroke-width="10"/> </svg>
<svg width="200" height="200"> <circle cx="100" cy="100" r="60" stroke="purple" stroke-width="10" fill="white" /> </svg>
<svg width="200" height="200"> <circle cx="100" cy="100" r="60" stroke="purple" stroke-width="10" fill="white" /> </svg>
<svg width="200" height="200"> <circle cx="100" cy="100" r="60" stroke="purple" stroke-width="10" fill="white" /> </svg>
<svg width="200" height="200"> <circle cx="100" cy="100" r="60" stroke="purple" stroke-width="10" fill="white" /> </svg>
<svg width="200" height="200"> <rect x="50" y="50" width="100" height="100" fill="white" stroke="blue" stroke-width="10"/> </svg>
<svg width="200" height="200"> <circle cx="100" cy="100" r="60" stroke="purple" stroke-width="10" fill="white" /> </svg>
<svg width="200" height="200"> <circle cx="100" cy="100" r="60" stroke="purple" stroke-width="10" fill="white" /> </svg>
<svg width="200" height="200"> <rect x="50" y="50" width="100" height="100" fill="yellow" stroke="blue" stroke-width="10"/> </svg>
<svg width="200" height="200"> <rect x="50" y="50" width="100" height="100" fill="yellow" stroke="blue" stroke-width="10"/> </svg>
<svg width="200" height="200"> <rect x="50" y="50" width="100" height="100" fill="white" stroke="blue" stroke-width="10"/> </svg>
<svg width="200" height="200"> <circle cx="100" cy="100" r="60" stroke="purple" stroke-width="10" fill="white" /> </svg>
<svg width="200" height="200"> <rect x="50" y="50" width="100" height="100" fill="white" stroke="blue" stroke-width="10"/> </svg>
<svg width="200" height="200"> <circle cx="100" cy="100" r="60" stroke="purple" stroke-width="10" fill="white" /> </svg>
<svg width="200" height="200"> <rect x="50" y="50" width="100" height="100" fill="white" stroke="blue" stroke-width="10"/> </svg>
