<svg width="200" height="200"> <circle cx="100" cy="100" r="60" stroke="blue" stroke-width="10" fill="white" /> </svg>
<svg width="200" height="200"> <circle cx="100" cy="100" r="60" stroke="green" stroke-width="10" fill="red" /> </svg>
<svg width="200" height="200"> <circle cx="100" cy="100" r="60" stroke="green" stroke-width="10" fill="red" /> </svg>
<svg width="200" height="200"> <circle cx="100" cy="100" r="60" stroke="blue" stroke-width="10" fill="white" /> </svg>
<svg width="200" height="200"> <circle cx="100" cy="100" r="60" stroke="blue" stroke-width="10" fill="white" /> </svg>
<svg width="200" height="200"> <circle cx="100" cy="100" r="60" stroke="blue" stroke-width="10" fill="white" /> </svg>
<svg width="200" height="200"> <circle cx="100" cy="100" r="60" stroke="green" stroke-width="10" fill="red" /> </svg>
<svg width="200" height="200"> <circle cx="100" cy="100" r="60" stroke="green" stroke-width="10" fill="red" /> </svg>
<svg width="200" height="200"> <circle cx="100" cy="100" r="60" stroke="blue" stroke-width="10" fill="white" /> </svg>
<svg width="200" height="200"> <circle cx="100" cy="100" r="60" stroke="blue" stroke-width="10" fill="white" /> </svg>
<svg width="200" height="200"> <circle cx="100" cy="100" r="60" stroke="blue" stroke-width="10" fill="white" /> </svg>
<svg width="200" height="200"> <circle cx="100" cy="100" r="60" stroke="green" stroke-width="10" fill="red" /> </svg>
<svg width="200" height="200"> <circle cx="100" cy="100" r="60" stroke="green" stroke-width="10" fill="red" /> </svg>
<svg width="200" height="200"> <circle cx="100" cy="100" r="60" stroke="green" stroke-width="10" fill="red" /> </svg>
<svg width="200" height="200"> <circle cx="100" cy="100" r="60" stroke="green" stroke-width="10" fill="red" /> </svg>
<svg width="200" height="200"> <circle cx="100" cy="100" r="60" stroke="blue" stroke-width="10" fill="white" /> </svg>
<svg width="200" height="200"> <circle cx="100" cy="100" r="60" stroke="green" stroke-width="10" fill="red" /> </svg>
<svg width="200" height="200"> <circle cx="100" cy="100" r="60" stroke="green" stroke-width="10" fill="red" /> </svg>
<svg width="200" height="200"> <circle cx="100" cy="100" r="60" stroke="green" stroke-width="10" fill="red" /> </svg>
<svg width="200" height="200"> <circle cx="100" cy="100" r="60" stroke="green" stroke-width="10" fill="red" /> </svg>
<svg width="200" height="200"> <circle cx="100" cy="100" r="60" stroke="blue" stroke-width="10" fill="white" /> </svg>
<svg width="200" height="200"> <circle cx="100" cy="100" r="60" stroke="blue" stroke-width="10" fill="white" /> </svg>
<svg width="200" height="200"> <circle cx="100" cy="100" r="60" stroke="green" stroke-width="10" fill="red" /> </svg>
<svg width="200" height="200"> <circle cx="100" cy="100" r="60" stroke="blue" stroke-width="10" fill="white" /> </svg>
<svg width="200" height="200"> <circle cx="100" cy="100" r="60" stroke="blue" stroke-width="10" fill="white" /> </svg>
<svg width="200" height="200"> <circle cx="100" cy="100" r="60" stroke="green" stroke-width="10" fill="red" /> </svg>
<svg width="200" height="200"> <circle cx="100" cy="100" r="60" stroke="green" stroke-width="10" fill="red" /> </svg>
<svg width="200" height="200"> <circle cx="100" cy="100" r="60" stroke="blue" stroke-width="10" fill="white" /> </svg>
<svg width="200" height="200"> <circle cx="100" cy="100" r="60" stroke="blue" stroke-width="10" fill="white" /> </svg>
<svg width="200" height="200"> <circle cx="100" cy="100" r="60" stroke="blue" stroke-width="10" fill="white" /> </svg>
<svg width="200" height="200"> <circle cx="100" cy="100" r="60" stroke="blue" stroke-width="10" fill="white" /> </svg>
<svg width="200" height="200"> <circle cx="100" cy="100" r="60" stroke="green" stroke-width="10" fill="red" /> </svg>
<svg width="200" height="200"> <circle cx="100" cy="100" r="60" stroke="green" stroke-width="10" fill="red" /> </svg>
<svg width="200" height="200"> <circle cx="100" cy="100" r="60" stroke="blue" stroke-width="10" fill="white" /> </svg>
<svg width="200" height="200"> <circle cx="100" cy="100" r="60" stroke="green" stroke-width="10" fill="red" /> </svg>
<svg width="200" height="200"> <circle cx="100" cy="100" r="60" stroke="blue" stroke-width="10" fill="white" /> </svg>
<svg width="200" height="200"> <circle cx="100" cy="100" r="60" stroke="blue" stroke-width="10" fill="white" /> </svg>
<svg width="200" height="200"> <circle cx="100" cy="100" r="60" stroke="blue" stroke-width="10" fill="white" /> </svg>
<svg width="200" height="200"> <circle cx="100" cy="100" r="60" stroke="blue" stroke-width="10" fill="white" /> </svg>
<svg width="200" height="200"> <circle cx="100" cy="100" r="60" stroke="green" stroke-width="10" fill="red" /> </svg>
<svg width="200" height="200"> <circle cx="100" cy="100" r="60" stroke="green" stroke-width="10" fill="red" /> </svg>
<svg width="200" height="200"> <circle cx="100" cy="100" r="60" stroke="blue" stroke-width="10" fill="white" /> </svg>
<svg width="200" height="200"> <circle cx="100" cy="100" r="60" stroke="green" stroke-width="10" fill="red" /> </svg>
<svg width="200" height="200"> <circle cx="100" cy="100" r="60" stroke="green" stroke-width="10" fill="red" /> </svg>
<svg width="200" height="200"> <circle cx="100" cy="100" r="60" stroke="blue" stroke-width="10" fill="white" /> </svg>
<svg width="200" height="200"> <circle cx="100" cy="100" r="60" stroke="green" stroke-width="10" fill="red" /> </svg>
<svg width="200" height="200"> <circle cx="100" cy="100" r="60" stroke="blue" stroke-width="10" fill="white" /> </svg>
<svg width="200" height="200"> <circle cx="100" cy="100" r="60" stroke="green" stroke-width="10" fill="red" /> </svg>
<svg width="200" height="200"> <circle cx="100" cy="100" r="60" stroke="blue" stroke-width="10" fill="white" /> </svg>
<svg width="200" height="200"> <circle cx="100" cy="100" r="60" stroke="green" stroke-width="10" fill="red" /> </svg>
<svg width="200" height="200"> <circle cx="100" cy="100" r="60" stroke="blue" stroke-width="10" fill="white" /> </svg>
<svg width="200" height="200"> <circle cx="100" cy="100" r="60" stroke="green" stroke-width="10" fill="red" /> </svg>
<svg width="200" height="200"> <circle cx="100" cy="100" r="60" stroke="blue" stroke-width="10" fill="white" /> </svg>
<svg width="200" height="200"> <circle cx="100" cy="100" r="60" stroke="green" stroke-width="10" fill="red" /> </svg>
<svg width="200" height="200"> <circle cx="100" cy="100" r="60" stroke="green" stroke-width="10" fill="red" /> </svg>
<svg width="200" height="200"> <circle cx="100" cy="100" r="60" stroke="blue" stroke-width="10" fill="white" /> </svg>
<svg width="200" height="200"> <circle cx="100" cy="100" r="60" stroke="green" stroke-width="10" fill="red" /> </svg>
<svg width="200" height="200"> <circle cx="100" cy="100" r="60" stroke="blue" stroke-width="10" fill="white" /> </svg>
<svg width="200" height="200"> <circle cx="100" cy="100" r="60" stroke="green" stroke-width="10" fill="red" /> </svg>
<svg width="200" height="200"> <circle cx="100" cy="100" r="60" stroke="blue" stroke-width="10" fill="white" /> </svg>
<svg width="200" height="200"> <circle cx="100" cy="100" r="60" stroke="green" stroke-width="10" fill="red" /> </svg>
<svg width="200" height="200"> <circle cx="100" cy="100" r="60" stroke="blue" stroke-width="10" fill="white" /> </svg>
<svg width="200" height="200"> <circle cx="100" cy="100" r="60" stroke="blue" stroke-width="10" fill="white" /> </svg>
<svg width="200" height="200"> <circle cx="100" cy="100" r="60" stroke="blue" stroke-width="10" fill="white" /> </svg>
<svg width="200" height="200"> <circle cx="100" cy="100" r="60" stroke="green" stroke-width="10" fill="red" /> </svg>
<svg width="200" height="200"> <circle cx="100" cy="100" r="60" stroke="green" stroke-width="10" fill="red" /> </svg>
<svg width="200" height="200"> <circle cx="100" cy="100" r="60" stroke="blue" stroke-width="10" fill="white" /> </svg>
<svg width="200" height="200"> <circle cx="100" cy="100" r="60" stroke="blue" stroke-width="10" fill="white" /> </svg>
<svg width="200" height="200"> <circle cx="100" cy="100" r="60" stroke="blue" stroke-width="10" fill="white" /> </svg>
<svg width="200" height="200"> <circle cx="100" cy="100" r="60" stroke="green" stroke-width="10" fill="red" /> </svg>
<svg width="200" height="200"> <circle cx="100" cy="100" r="60" stroke="blue" stroke-width="10" fill="white" /> </svg>
<svg width="200" height="200"> <circle cx="100" cy="100" r="60" stroke="blue" stroke-width="10" fill="white" /> </svg>
<svg width="200" height="200"> <circle cx="100" cy="100" r="60" stroke="blue" stroke-width="10" fill="white" /> </svg>
<svg width="200" height="200"> <circle cx="100" cy="100" r="60" stroke="blue" stroke-width="10" fill="white" /> </svg>
<svg width="200" height="200"> <circle cx="100" cy="100" r="60" stroke="blue" stroke-width="10" fill="white" /> </svg>
<svg width="200" height="200"> <circle cx="100" cy="100" r="60" stroke="green" stroke-width="10" fill="red" /> </svg>
<svg width="200" height="200"> <circle cx="100" cy="100" r="60" stroke="green" stroke-width="10" fill="red" /> </svg>
<svg width="200" height="200"> <circle cx="100" cy="100" r="60" stroke="blue" stroke-width="10" fill="white" /> </svg>
<svg width="200" height="200"> <circle cx="100" cy="100" r="60" stroke="blue" stroke-width="10" fill="white" /> </svg>
<svg width="200" height="200"> <circle cx="100" cy="100" r="60" stroke="green" stroke-width="10" fill="red" /> </svg>
<svg width="200" height="200"> <circle cx="100" cy="100" r="60" stroke="blue" stroke-width="10" fill="white" /> </svg>
<svg width="200" height="200"> <circle cx="100" cy="100" r="60" stroke="green" stroke-width="10" fill="red" /> </svg>
<svg width="200" height="200"> <circle cx="100" cy="100" r="60" stroke="blue" stroke-width="10" fill="white" /> </svg>
<svg width="200" height="200"> <circle cx="100" cy="100" r="60" stroke="blue" stroke-width="10" fill="white" /> </svg>
<svg width="200" height="200"> <circle cx="100" cy="100" r="60" stroke="green" stroke-width="10" fill="red" /> </svg>
<svg width="200" height="200"> <circle cx="100" cy="100" r="60" stroke="blue" stroke-width="10" fill="white" /> </svg>
<svg width="200" height="200"> <circle cx="100" cy="100" r="60" stroke="blue" stroke-width="10" fill="white" /> </svg>
<svg width="200" height="200"> <circle cx="100" cy="100" r="60" stroke="green" stroke-width="10" fill="red" /> </svg>
<svg width="200" height="200"> <circle cx="100" cy="100" r="60" stroke="blue" stroke-width="10" fill="white" /> </svg>
<svg width="200" height="200"> <circle cx="100" cy="100" r="60" stroke="blue" stroke-width="10" fill="white" /> </svg>
<svg width="200" height="200"> <circle cx="100" cy="100" r="60" stroke="blue" stroke-width="10" fill="white" /> </svg>
<svg width="200" height="200"> <circle cx="100" cy="100" r="60" stroke="blue" stroke-width="10" fill="white" /> </svg>
<svg width="200" height="200"> <circle cx="100" cy="100" r="60" stroke="blue" stroke-width="10" fill="white" /> </svg>
<svg width="200" height="200"> <circle cx="100" cy="100" r="60" stroke="blue" stroke-width="10" fill="white" /> </svg>
<svg width="200" height="200"> <circle cx="100" cy="100" r="60" stroke="green" stroke-width="10" fill="red" /> </svg>
<svg width="200" height="200"> <circle cx="100" cy="100" r="60" stroke="green" stroke-width="10" fill="red" /> </svg>
<svg width="200" height="200"> <circle cx="100" cy="100" r="60" stroke="green" stroke-width="10" fill="red" /> </svg>
<svg width="200" height="200"> <circle cx="100" cy="100" r="60" stroke="green" stroke-width="10" fill="red" /> </svg>
<svg width="200" height="200"> <circle cx="100" cy="100" r="60" stroke="blue" stroke-width="10" fill="white" /> </svg>
<svg width="200" height="200"> <circle cx="100" cy="100" r="60" stroke="green" stroke-width="10" fill="red" /> </svg>
